<svg width="40" height="40" viewBox="0 0 40 40" fill="none" xmlns="http://www.w3.org/2000/svg">
<g clip-path="url(#clip0_15_66)">
<path d="M38.3333 26.6667C38.0754 26.6666 37.8209 26.6067 37.59 26.4917L34.2567 24.825C33.8611 24.6274 33.5601 24.2808 33.4201 23.8613C33.2801 23.4418 33.3124 22.9839 33.51 22.5883C33.7076 22.1927 34.0542 21.8918 34.4737 21.7518C34.8932 21.6117 35.3511 21.6441 35.7467 21.8417L39.08 23.5083C39.4164 23.676 39.6863 23.9525 39.8458 24.2929C40.0053 24.6333 40.045 25.0176 39.9585 25.3835C39.872 25.7493 39.6644 26.0751 39.3694 26.3081C39.0744 26.541 38.7092 26.6674 38.3333 26.6667ZM35.745 11.5L39.0783 9.83333C39.4739 9.63575 39.7749 9.2891 39.9149 8.86964C40.0549 8.45018 40.0226 7.99228 39.825 7.59667C39.6274 7.20105 39.2808 6.90013 38.8613 6.7601C38.4419 6.62008 37.9839 6.65241 37.5883 6.85L34.255 8.51667C33.8594 8.71425 33.5585 9.0609 33.4184 9.48036C33.2784 9.89982 33.3107 10.3577 33.5083 10.7533C33.7059 11.1489 34.0526 11.4499 34.472 11.5899C34.8915 11.7299 35.3494 11.6976 35.745 11.5ZM40 16.6667C40 16.2246 39.8244 15.8007 39.5118 15.4882C39.1993 15.1756 38.7754 15 38.3333 15H35C34.558 15 34.134 15.1756 33.8215 15.4882C33.5089 15.8007 33.3333 16.2246 33.3333 16.6667C33.3333 17.1087 33.5089 17.5326 33.8215 17.8452C34.134 18.1577 34.558 18.3333 35 18.3333H38.3333C38.7754 18.3333 39.1993 18.1577 39.5118 17.8452C39.8244 17.5326 40 17.1087 40 16.6667ZM30 31.6667V1.66667C30 1.22464 29.8244 0.800716 29.5118 0.488155C29.1993 0.175595 28.7754 0 28.3333 0C27.8913 0 27.4674 0.175595 27.1548 0.488155C26.8423 0.800716 26.6667 1.22464 26.6667 1.66667C26.6667 6.58167 22.3617 8.33333 18.3333 8.33333H6.66667C4.89856 8.33333 3.20286 9.03571 1.95262 10.286C0.702379 11.5362 0 13.2319 0 15L0 18.3333C0 20.1014 0.702379 21.7971 1.95262 23.0474C3.20286 24.2976 4.89856 25 6.66667 25H18.3333C22.3617 25 26.6667 26.7517 26.6667 31.6667C26.6667 32.1087 26.8423 32.5326 27.1548 32.8452C27.4674 33.1577 27.8913 33.3333 28.3333 33.3333C28.7754 33.3333 29.1993 33.1577 29.5118 32.8452C29.8244 32.5326 30 32.1087 30 31.6667ZM13.6433 28.3333H6.66667C5.89069 28.3302 5.11771 28.2368 4.36333 28.055L8.53 37.3583C8.87994 38.1446 9.45031 38.8127 10.1721 39.2815C10.8938 39.7503 11.736 39.9999 12.5967 40C13.2814 39.9991 13.9551 39.8268 14.5562 39.4989C15.1573 39.171 15.6668 38.6978 16.0383 38.1226C16.4097 37.5474 16.6313 36.8883 16.6829 36.2055C16.7344 35.5227 16.6142 34.8378 16.3333 34.2133L13.6433 28.3333Z" fill="#ADADAD"/>
</g>
<defs>
<clipPath id="clip0_15_66">
<rect width="40" height="40" fill="white"/>
</clipPath>
</defs>
</svg>
