<svg width="40" height="40" viewBox="0 0 40 40" fill="none" xmlns="http://www.w3.org/2000/svg">
<g clip-path="url(#clip0_15_54)">
<path d="M7.72667 22.8417L8.79 28.3333H6.68833L7.72667 22.8417ZM40 5V11.6667H0V5C0 2.24333 2.24333 0 5 0H35C37.7567 0 40 2.24333 40 5ZM8.33333 5.83333C8.33333 4.45333 7.21333 3.33333 5.83333 3.33333C4.45333 3.33333 3.33333 4.45333 3.33333 5.83333C3.33333 7.21333 4.45333 8.33333 5.83333 8.33333C7.21333 8.33333 8.33333 7.21333 8.33333 5.83333ZM15 5.83333C15 4.45333 13.88 3.33333 12.5 3.33333C11.12 3.33333 10 4.45333 10 5.83333C10 7.21333 11.12 8.33333 12.5 8.33333C13.88 8.33333 15 7.21333 15 5.83333ZM17 22.6667C16.3567 22.6667 15.8333 22.6667 15.8333 22.6667V30.67C15.8333 30.67 16.3567 30.67 17 30.67C17.6433 30.67 18.1667 30.1467 18.1667 29.5033V23.8367C18.1667 23.1933 17.6433 22.67 17 22.67V22.6667ZM35.8333 19.2517V16.6667H32.5V19.2517C30.14 19.6517 28.3333 21.695 28.3333 24.1667C28.3333 26.37 29.655 28.3233 31.7017 29.1433L35.3917 30.6183C36.165 30.9283 36.665 31.6667 36.665 32.5C36.665 33.4183 35.9167 34.1667 34.9983 34.1667H33.3317C32.4133 34.1667 31.665 33.4183 31.665 32.5V31.6667H28.3317V32.5C28.3317 34.9717 30.1383 37.0167 32.4983 37.415V40H35.8317V37.415C38.1917 37.015 39.9983 34.9717 39.9983 32.5C39.9983 30.2967 38.6767 28.3433 36.63 27.5233L32.94 26.0483C32.1667 25.7383 31.6667 25 31.6667 24.1667C31.6667 23.2483 32.415 22.5 33.3333 22.5H35C35.9183 22.5 36.6667 23.2483 36.6667 24.1667V25H40V24.1667C40 21.695 38.1933 19.65 35.8333 19.2517ZM25 24.1667V32.5C25 34.025 25.4417 35.4367 26.16 36.6667H0V15H29.1667V16.9933C26.6883 18.4383 25 21.0967 25 24.1667ZM12.3333 33.3317L10.005 21.9867C9.805 20.8733 9.02333 20 7.76167 20C6.5 20 5.62667 20.9783 5.45333 21.945L3.16667 33.3333H5.615L6.07333 30.8767H9.41667L9.85333 33.3333L12.3333 33.3317ZM20.8333 23.8333C20.8333 21.7183 19.115 20 17 20H13.1667V33.3333H17C19.115 33.3333 20.8333 31.615 20.8333 29.5V23.8333Z" fill="#ADADAD"/>
</g>
<defs>
<clipPath id="clip0_15_54">
<rect width="40" height="40" fill="white"/>
</clipPath>
</defs>
</svg>
