<svg width="40" height="40" viewBox="0 0 40 40" fill="none" xmlns="http://www.w3.org/2000/svg">
<g clip-path="url(#clip0_15_78)">
<path d="M26.6467 19.5435C26.91 22.5102 24.58 25.0002 21.6667 25.0002H15.0367C13.885 25.0002 13.0683 23.8902 13.4117 22.7919C14.2483 20.1102 16.6383 15.8502 20.4783 15.1119C23.4033 14.5485 26.3833 16.5769 26.6467 19.5435ZM26.7033 13.4402C27.9367 14.3702 28.835 15.6219 29.3883 17.0085L38.82 6.86687C40.3917 5.29688 40.395 2.75021 38.825 1.17854C37.2567 -0.391458 34.7133 -0.393124 33.1433 1.17521C33.09 1.22854 23.855 12.0302 23.855 12.0302C24.87 12.3219 25.8417 12.7902 26.7033 13.4402ZM19.5867 11.8919L21.3217 9.86354C23.7733 6.99521 25.5683 4.89521 26.905 3.33354H8.33333C3.73833 3.33354 0 7.07188 0 11.6669V15.0002H14.265C15.715 13.5302 17.4783 12.3602 19.5867 11.8919ZM7.5 11.6669C6.12 11.6669 5 10.5469 5 9.16687C5 7.78687 6.12 6.66687 7.5 6.66687C8.88 6.66687 10 7.78687 10 9.16687C10 10.5469 8.88 11.6669 7.5 11.6669ZM11.6667 9.16687C11.6667 7.78687 12.7867 6.66687 14.1667 6.66687C15.5467 6.66687 16.6667 7.78687 16.6667 9.16687C16.6667 10.5469 15.5467 11.6669 14.1667 11.6669C12.7867 11.6669 11.6667 10.5469 11.6667 9.16687ZM35.8067 15.0002H40V11.6669C40 11.3035 39.9383 10.9569 39.8933 10.6052L35.8067 15.0002ZM29.885 21.3702C29.62 22.9469 28.91 24.4319 27.8167 25.6252C26.2417 27.3469 24 28.3335 21.6683 28.3335H15.0383C13.4417 28.3335 11.9233 27.5669 10.9783 26.2819C10.035 24.9969 9.755 23.3219 10.2317 21.7985C10.5783 20.6852 11.1017 19.4969 11.7617 18.3352H0V31.6685C0 36.2635 3.73833 40.0019 8.33333 40.0019H31.6667C36.2617 40.0019 40 36.2635 40 31.6685V18.3352H32.7083L29.885 21.3719V21.3702ZM30 35.0002H10C9.08 35.0002 8.33333 34.2535 8.33333 33.3335C8.33333 32.4135 9.08 31.6669 10 31.6669H30C30.92 31.6669 31.6667 32.4135 31.6667 33.3335C31.6667 34.2535 30.92 35.0002 30 35.0002Z" fill="#ADADAD"/>
</g>
<defs>
<clipPath id="clip0_15_78">
<rect width="40" height="40" fill="white"/>
</clipPath>
</defs>
</svg>
