<svg width="40" height="40" viewBox="0 0 40 40" fill="none" xmlns="http://www.w3.org/2000/svg">
<path d="M40 12.7273V9.09091C40 4.07818 36.2617 0 31.6667 0H8.33333C3.73833 0 0 4.07818 0 9.09091V12.7273H40ZM14.1667 3.63636C15.5467 3.63636 16.6667 4.85818 16.6667 6.36364C16.6667 7.86909 15.5467 9.09091 14.1667 9.09091C12.7867 9.09091 11.6667 7.86909 11.6667 6.36364C11.6667 4.85818 12.7867 3.63636 14.1667 3.63636ZM7.5 3.63636C8.88 3.63636 10 4.85818 10 6.36364C10 7.86909 8.88 9.09091 7.5 9.09091C6.12 9.09091 5 7.86909 5 6.36364C5 4.85818 6.12 3.63636 7.5 3.63636ZM0 16.3636V30.9091C0 35.9218 3.73833 40 8.33333 40H31.6667C36.2617 40 40 35.9218 40 30.9091V16.3636H0ZM13.3767 28.5855L16.98 32.32C17.6467 33.0109 17.675 34.1618 17.04 34.8891C16.4067 35.6182 15.35 35.6473 14.685 34.9545L11.05 31.1891C9.565 29.5709 9.565 26.9927 11.0183 25.4073L14.6533 21.4418C15.305 20.7309 16.3583 20.7309 17.01 21.4418C17.6617 22.1527 17.6617 23.3018 17.01 24.0127L13.375 27.9782C13.2217 28.1455 13.2217 28.4182 13.375 28.5855H13.3767ZM28.9783 31.1564L25.3617 34.9818C24.7017 35.68 23.6467 35.6636 23.005 34.9436C22.3633 34.2236 22.38 33.0709 23.04 32.3727L26.6383 28.5673C26.7733 28.42 26.7733 28.1473 26.62 27.98L22.985 24.0145C22.3333 23.3036 22.3333 22.1545 22.985 21.4436C23.6367 20.7327 24.69 20.7327 25.3417 21.4436L28.9767 25.4091C30.43 26.9945 30.43 29.5727 28.9767 31.1582L28.9783 31.1564Z" fill="#FAFAFA"/>
</svg>
