<svg width="64" height="64" viewBox="0 0 64 64" fill="none" xmlns="http://www.w3.org/2000/svg">
<g filter="url(#filter0_f_9_463)">
<path d="M80.6506 21.28C82.528 24.7787 81.568 27.1467 77.7706 28.384C73.9733 29.6213 71.1146 31.1573 69.1946 32.992C67.2747 34.8267 65.056 36.576 62.5386 38.24C60.0213 39.904 56.992 41.4613 53.4506 42.912C49.9093 44.3627 46.5387 44.192 43.3387 42.4C40.1387 40.608 37.6 38.1973 35.7227 35.168C33.8453 32.1387 33.4613 28.832 34.5707 25.248C35.68 21.664 35.4027 18.4427 33.7387 15.584C32.0747 12.7253 31.6053 9.71733 32.3307 6.56C33.056 3.40266 34.656 0.735997 37.1307 -1.44C39.6053 -3.616 42.144 -5.856 44.7467 -8.16C47.3493 -10.464 50.2507 -10.2293 53.4506 -7.456C56.6507 -4.68267 59.4026 -2.99734 61.7066 -2.4C64.0107 -1.80267 67.552 -2.08 72.3307 -3.232C77.1093 -4.384 79.6053 -2.99734 79.8186 0.927998C80.032 4.85333 79.7546 8.352 78.9866 11.424C78.2186 14.496 78.7733 17.7813 80.6506 21.28Z" fill="#5B5B5B"/>
</g>
<g filter="url(#filter1_f_9_463)">
<path d="M29.8346 60.9599C31.7119 64.4586 30.7519 66.8266 26.9546 68.0639C23.1573 69.3013 20.2986 70.8373 18.3786 72.6719C16.4586 74.5066 14.2399 76.2559 11.7226 77.9199C9.20528 79.5839 6.17594 81.1413 2.63461 82.5919C-0.906723 84.0426 -4.27739 83.8719 -7.47739 82.0799C-10.6774 80.2879 -13.2161 77.8773 -15.0934 74.8479C-16.9707 71.8186 -17.3547 68.5119 -16.2454 64.9279C-15.1361 61.3439 -15.4134 58.1226 -17.0774 55.2639C-18.7414 52.4053 -19.2107 49.3973 -18.4854 46.2399C-17.7601 43.0826 -16.1601 40.4159 -13.6854 38.2399C-11.2107 36.0639 -8.67206 33.8239 -6.06939 31.5199C-3.46672 29.2159 -0.56539 29.4506 2.63461 32.2239C5.83461 34.9973 8.58661 36.6826 10.8906 37.2799C13.1946 37.8773 16.7359 37.5999 21.5146 36.4479C26.2933 35.2959 28.7893 36.6826 29.0026 40.6079C29.2159 44.5333 28.9386 48.0319 28.1706 51.1039C27.4026 54.1759 27.9573 57.4613 29.8346 60.9599Z" fill="#272727"/>
</g>
<g filter="url(#filter2_f_9_463)" style="mix-blend-mode:plus-lighter">
<path d="M80.8148 12.6367C82.2688 17.2976 81.5253 20.4523 78.5844 22.1006C75.6434 23.749 73.4294 25.7953 71.9424 28.2394C70.4555 30.6835 68.7371 33.014 66.7875 35.2308C64.8379 37.4475 62.4918 39.5222 59.7491 41.4548C57.0064 43.3874 54.3959 43.16 51.9176 40.7727C49.4393 38.3854 47.4731 35.1739 46.0192 31.1383C44.5652 27.1026 44.2678 22.6975 45.127 17.9229C45.9861 13.1483 45.7713 8.85684 44.4826 5.04854C43.1939 1.24023 42.8304 -2.76701 43.3922 -6.9732C43.9539 -11.1794 45.1931 -14.7319 47.1096 -17.6308C49.0262 -20.5296 50.9923 -23.5137 53.008 -26.5831C55.0238 -29.6525 57.2708 -29.3399 59.7491 -25.6453C62.2274 -21.9506 64.3588 -19.7054 66.1432 -18.9097C67.9276 -18.1139 70.6702 -18.4834 74.3712 -20.0181C78.0722 -21.5528 80.0053 -19.7054 80.1705 -14.4761C80.3357 -9.24681 80.1209 -4.5859 79.5261 -0.493399C78.9313 3.59911 79.3609 7.97581 80.8148 12.6367Z" fill="#272727"/>
</g>
<g filter="url(#filter3_f_9_463)" style="mix-blend-mode:plus-lighter">
<path d="M85.8069 18.6528C87.2609 23.3137 86.5174 26.4684 83.5764 28.1168C80.6355 29.7651 78.4215 31.8114 76.9345 34.2555C75.4475 36.6996 73.7292 39.0301 71.7796 41.2469C69.83 43.4637 67.4838 45.5383 64.7412 47.4709C61.9985 49.4035 59.388 49.1761 56.9097 46.7888C54.4313 44.4015 52.4652 41.19 51.0112 37.1544C49.5573 33.1187 49.2599 28.7136 50.119 23.939C50.9782 19.1644 50.7634 14.873 49.4747 11.0647C48.186 7.25635 47.8225 3.2491 48.3842 -0.957087C48.946 -5.16327 50.1851 -8.7158 52.1017 -11.6147C54.0183 -14.5135 55.9844 -17.4976 58.0001 -20.567C60.0158 -23.6364 62.2628 -23.3238 64.7412 -19.6291C67.2195 -15.9345 69.3508 -13.6893 71.1352 -12.8936C72.9196 -12.0978 75.6623 -12.4673 79.3633 -14.0019C83.0642 -15.5366 84.9973 -13.6893 85.1625 -8.46001C85.3278 -3.2307 85.113 1.43021 84.5182 5.52271C83.9234 9.61522 84.353 13.9919 85.8069 18.6528Z" fill="#272727"/>
</g>
<g filter="url(#filter4_f_9_463)" style="mix-blend-mode:plus-lighter">
<path d="M24.4949 72.9248C25.9488 77.5857 25.2053 80.7404 22.2644 82.3887C19.3235 84.0371 17.1095 86.0834 15.6225 88.5275C14.1355 90.9716 12.4172 93.3021 10.4676 95.5189C8.51797 97.7356 6.17182 99.8103 3.42914 101.743C0.686464 103.675 -1.92404 103.448 -4.40236 101.061C-6.88068 98.6735 -8.84682 95.462 -10.3008 91.4263C-11.7547 87.3907 -12.0521 82.9856 -11.193 78.211C-10.3338 73.4364 -10.5486 69.1449 -11.8373 65.3366C-13.1261 61.5283 -13.4895 57.5211 -12.9278 53.3149C-12.366 49.1087 -11.1269 45.5562 -9.21031 42.6573C-7.29374 39.7585 -5.3276 36.7743 -3.3119 33.705C-1.29619 30.6356 0.950819 30.9482 3.42914 34.6428C5.90747 38.3375 8.03883 40.5826 9.82322 41.3784C11.6076 42.1742 14.3503 41.8047 18.0513 40.27C21.7522 38.7353 23.6853 40.5826 23.8505 45.812C24.0158 51.0413 23.801 55.7022 23.2062 59.7947C22.6114 63.8872 23.0409 68.2639 24.4949 72.9248Z" fill="#AEAEAE"/>
</g>
<defs>
<filter id="filter0_f_9_463" x="16.1284" y="-25.6003" width="81.3259" height="85.3578" filterUnits="userSpaceOnUse" color-interpolation-filters="sRGB">
<feFlood flood-opacity="0" result="BackgroundImageFix"/>
<feBlend mode="normal" in="SourceGraphic" in2="BackgroundImageFix" result="shape"/>
<feGaussianBlur stdDeviation="7.936" result="effect1_foregroundBlur_9_463"/>
</filter>
<filter id="filter1_f_9_463" x="-34.6877" y="14.0797" width="81.3259" height="85.3578" filterUnits="userSpaceOnUse" color-interpolation-filters="sRGB">
<feFlood flood-opacity="0" result="BackgroundImageFix"/>
<feBlend mode="normal" in="SourceGraphic" in2="BackgroundImageFix" result="shape"/>
<feGaussianBlur stdDeviation="7.936" result="effect1_foregroundBlur_9_463"/>
</filter>
<filter id="filter2_f_9_463" x="27.2644" y="-44.5444" width="70.144" height="103.168" filterUnits="userSpaceOnUse" color-interpolation-filters="sRGB">
<feFlood flood-opacity="0" result="BackgroundImageFix"/>
<feBlend mode="normal" in="SourceGraphic" in2="BackgroundImageFix" result="shape"/>
<feGaussianBlur stdDeviation="7.936" result="effect1_foregroundBlur_9_463"/>
</filter>
<filter id="filter3_f_9_463" x="32.2564" y="-38.5283" width="70.144" height="103.168" filterUnits="userSpaceOnUse" color-interpolation-filters="sRGB">
<feFlood flood-opacity="0" result="BackgroundImageFix"/>
<feBlend mode="normal" in="SourceGraphic" in2="BackgroundImageFix" result="shape"/>
<feGaussianBlur stdDeviation="7.936" result="effect1_foregroundBlur_9_463"/>
</filter>
<filter id="filter4_f_9_463" x="-29.0556" y="15.7437" width="70.144" height="103.168" filterUnits="userSpaceOnUse" color-interpolation-filters="sRGB">
<feFlood flood-opacity="0" result="BackgroundImageFix"/>
<feBlend mode="normal" in="SourceGraphic" in2="BackgroundImageFix" result="shape"/>
<feGaussianBlur stdDeviation="7.936" result="effect1_foregroundBlur_9_463"/>
</filter>
</defs>
</svg>
