<svg width="32" height="32" viewBox="0 0 32 32" fill="none" xmlns="http://www.w3.org/2000/svg">
<path d="M13.2499 20.6663C13.1309 20.2049 12.8904 19.7838 12.5534 19.4469C12.2165 19.1099 11.7954 18.8694 11.3339 18.7503L3.15395 16.641C3.01439 16.6014 2.89156 16.5174 2.80409 16.4016C2.71663 16.2859 2.66931 16.1448 2.66931 15.9997C2.66931 15.8546 2.71663 15.7135 2.80409 15.5978C2.89156 15.482 3.01439 15.398 3.15395 15.3583L11.3339 13.2477C11.7952 13.1288 12.2162 12.8884 12.5531 12.5517C12.8901 12.215 13.1307 11.7942 13.2499 11.333L15.3593 3.15301C15.3985 3.01291 15.4825 2.88947 15.5984 2.80154C15.7143 2.71361 15.8558 2.66602 16.0013 2.66602C16.1468 2.66602 16.2883 2.71361 16.4042 2.80154C16.5201 2.88947 16.6041 3.01291 16.6433 3.15301L18.7513 11.333C18.8703 11.7944 19.1108 12.2155 19.4478 12.5525C19.7847 12.8895 20.2059 13.13 20.6673 13.249L28.8473 15.357C28.9879 15.3958 29.112 15.4797 29.2004 15.5958C29.2888 15.7119 29.3367 15.8538 29.3367 15.9997C29.3367 16.1456 29.2888 16.2875 29.2004 16.4036C29.112 16.5197 28.9879 16.6035 28.8473 16.6423L20.6673 18.7503C20.2059 18.8694 19.7847 19.1099 19.4478 19.4469C19.1108 19.7838 18.8703 20.2049 18.7513 20.6663L16.6419 28.8463C16.6027 28.9865 16.5188 29.1099 16.4029 29.1978C16.2869 29.2858 16.1454 29.3333 15.9999 29.3333C15.8545 29.3333 15.713 29.2858 15.597 29.1978C15.4811 29.1099 15.3972 28.9865 15.3579 28.8463L13.2499 20.6663Z" fill="white" stroke="white" stroke-width="2.66667" stroke-linecap="round" stroke-linejoin="round"/>
</svg>
