<svg width="18" height="18" viewBox="0 0 18 18" fill="none" xmlns="http://www.w3.org/2000/svg">
<g clip-path="url(#clip0_18_87)">
<path d="M11.1225 11.1225C10.7028 11.5417 10.1683 11.8271 9.5864 11.9426C9.00455 12.0581 8.40152 11.9985 7.85354 11.7713C7.30555 11.5442 6.83722 11.1596 6.50772 10.6664C6.17822 10.1731 6.00236 9.5932 6.00236 9C6.00236 8.4068 6.17822 7.82691 6.50772 7.33364C6.83722 6.84036 7.30555 6.45584 7.85354 6.22868C8.40152 6.00152 9.00455 5.94191 9.5864 6.0574C10.1683 6.17289 10.7028 6.45828 11.1225 6.8775M16.5 9C16.5 13.1421 13.1421 16.5 9 16.5C4.85786 16.5 1.5 13.1421 1.5 9C1.5 4.85786 4.85786 1.5 9 1.5C13.1421 1.5 16.5 4.85786 16.5 9Z" stroke="#737373" stroke-width="1.5" stroke-linecap="round" stroke-linejoin="round"/>
</g>
<defs>
<clipPath id="clip0_18_87">
<rect width="18" height="18" fill="white"/>
</clipPath>
</defs>
</svg>
