<svg width="17" height="16" viewBox="0 0 17 16" fill="none" xmlns="http://www.w3.org/2000/svg">
<path d="M10.977 1.26773L16.0008 1.94319L11.8635 6.0804L10.977 1.26773ZM5.06671 14.777L0.0429688 14.1015L4.18017 9.9643L5.06671 14.777ZM1.26724 5.0672L1.9427 0.043457L6.07991 4.18066L1.26724 5.0672Z" fill="black"/>
<path d="M1.8153 6.84027L0.0422165 7.178C1.17951e-07 7.47352 0 7.72681 0 8.02233C0 9.96428 0.675462 11.8218 1.94195 13.2572L3.20844 12.1595C2.23747 11.0197 1.68865 9.54212 1.68865 8.02233C1.68865 7.64238 1.73087 7.22022 1.8153 6.84027ZM8.02111 0.0012207C5.74142 0.0012207 3.71504 0.972197 2.23747 2.49199L3.41953 3.67404C4.60158 2.44977 6.2058 1.68988 8.02111 1.68988C8.40106 1.68988 8.82322 1.73209 9.20317 1.81652L9.49868 0.170086C9.0343 0.0434371 8.5277 0.0012207 8.02111 0.0012207ZM14.2269 9.20439L16 8.86666C16.0422 8.57114 16.0422 8.31784 16.0422 8.02233C16.0422 6.16481 15.409 4.34951 14.2269 2.91415L12.9182 3.96956C13.847 5.1094 14.3536 6.54476 14.3536 7.98011C14.3536 8.40228 14.3113 8.82444 14.2269 9.20439ZM12.6227 12.3706C11.4406 13.5949 9.83641 14.3548 8.02111 14.3548C7.64116 14.3548 7.219 14.3126 6.83905 14.2281L6.54354 15.8746C7.05013 15.959 7.55673 16.0012 8.02111 16.0012C10.3008 16.0012 12.3272 15.0302 13.8047 13.5105L12.6227 12.3706Z" fill="black"/>
<path d="M14.7756 10.9775L14.1001 16.0013L9.96289 11.8641L14.7756 10.9775Z" fill="black"/>
</svg>
