<svg width="36" height="36" viewBox="0 0 36 36" fill="none" xmlns="http://www.w3.org/2000/svg">
<path d="M21.7534 17.9793C21.7534 20.1258 20.0134 21.8658 17.8669 21.8658C15.7204 21.8658 13.9819 20.1258 13.9819 17.9793C13.9819 15.8328 15.7219 14.0928 17.8669 14.0928C20.0119 14.0928 21.7534 15.8328 21.7534 17.9793Z" fill="#FAFAFA"/>
<path d="M18 0C8.0595 0 0 8.0595 0 18C0 27.9405 8.0595 36 18 36C27.9405 36 36 27.9405 36 18C36 8.0595 27.9405 0 18 0ZM29.4555 22.785C29.4 24.0255 29.202 24.873 28.914 25.614C28.6155 26.3805 28.2165 27.0315 27.5685 27.6795C26.9205 28.3275 26.2695 28.7265 25.5045 29.0235C24.7635 29.3115 23.9145 29.508 22.674 29.565C21.4305 29.622 21.033 29.6355 17.8665 29.6355C14.7 29.6355 14.304 29.622 13.0605 29.565C11.82 29.508 10.9725 29.3115 10.23 29.0235C9.4635 28.7265 8.814 28.326 8.1645 27.6795C7.5165 27.0315 7.1175 26.3805 6.819 25.614C6.531 24.873 6.3345 24.0255 6.2775 22.785C6.2205 21.5415 6.207 21.144 6.207 17.9775C6.207 14.811 6.2205 14.415 6.2775 13.1715C6.3345 11.931 6.531 11.0835 6.819 10.341C7.1175 9.5745 7.5165 8.925 8.1645 8.277C8.8125 7.629 9.4635 7.23 10.23 6.9315C10.971 6.6435 11.82 6.447 13.0605 6.39C14.304 6.333 14.7015 6.3195 17.8665 6.3195C21.0315 6.3195 21.4305 6.333 22.674 6.39C23.9145 6.4455 24.762 6.6435 25.5045 6.9315C26.271 7.2285 26.9205 7.629 27.5685 8.277C28.2165 8.925 28.6155 9.576 28.914 10.341C29.202 11.082 29.3985 11.931 29.4555 13.1715C29.5125 14.415 29.526 14.811 29.526 17.9775C29.526 21.144 29.5125 21.54 29.4555 22.785ZM26.9565 11.103C26.745 10.5585 26.493 10.17 26.0835 9.762C25.6755 9.354 25.287 9.1005 24.7425 8.889C24.3315 8.73 23.715 8.5395 22.578 8.4885C21.348 8.4315 20.979 8.421 17.8665 8.421C14.754 8.421 14.385 8.433 13.155 8.4885C12.0195 8.5395 11.4015 8.73 10.9905 8.889C10.446 9.1005 10.0575 9.3525 9.6495 9.762C9.2415 10.17 8.988 10.5585 8.7765 11.103C8.6175 11.514 8.427 12.1305 8.376 13.2675C8.319 14.496 8.3085 14.865 8.3085 17.979C8.3085 21.093 8.3205 21.4605 8.376 22.6905C8.4285 23.826 8.6175 24.444 8.7765 24.855C8.988 25.3995 9.24 25.788 9.6495 26.196C10.0575 26.604 10.446 26.856 10.9905 27.0675C11.4015 27.228 12.018 27.417 13.155 27.4695C14.3835 27.5265 14.7525 27.537 17.8665 27.537C20.9805 27.537 21.3495 27.525 22.578 27.4695C23.715 27.417 24.3315 27.228 24.7425 27.0675C25.287 26.856 25.6755 26.604 26.0835 26.196C26.4915 25.788 26.745 25.3995 26.9565 24.855C27.1155 24.444 27.306 23.8275 27.357 22.6905C27.414 21.4605 27.426 21.0915 27.426 17.979C27.426 14.8665 27.414 14.4975 27.357 13.2675C27.3045 12.1305 27.1155 11.514 26.9565 11.103ZM17.868 23.964C14.562 23.964 11.8815 21.2835 11.8815 17.9775C11.8815 14.6715 14.562 11.991 17.868 11.991C21.174 11.991 23.8545 14.6715 23.8545 17.9775C23.8545 21.2835 21.174 23.964 17.868 23.964ZM24.0915 13.1535C23.319 13.1535 22.692 12.528 22.692 11.7555C22.692 10.983 23.3175 10.356 24.0915 10.356C24.8655 10.356 25.491 10.983 25.491 11.7555C25.491 12.528 24.864 13.1535 24.0915 13.1535Z" fill="#FAFAFA"/>
</svg>
