<svg width="28" height="28" viewBox="0 0 28 28" fill="none" xmlns="http://www.w3.org/2000/svg">
<path fill-rule="evenodd" clip-rule="evenodd" d="M22.1494 19.7695C21.812 20.7246 20.4708 21.5147 19.4012 21.7458C18.669 21.9012 17.7142 22.0242 14.497 20.691C10.8836 19.194 5.866 13.8614 5.866 10.3127C5.866 8.50615 6.9076 6.40254 8.729 6.40254C9.6054 6.40254 9.7986 6.41963 10.087 7.11143C10.4244 7.92648 11.2476 9.93457 11.3456 10.1404C11.7502 10.9849 10.934 11.4792 10.3418 12.2145C10.1528 12.4357 9.93861 12.675 10.178 13.0867C10.416 13.49 11.2392 14.8317 12.4488 15.9086C14.0112 17.3006 15.2782 17.745 15.7318 17.9341C16.0692 18.0741 16.4724 18.0415 16.7188 17.7782C17.031 17.4407 17.4188 16.8808 17.8136 16.329C18.0922 15.9341 18.4464 15.8848 18.8174 16.0248C19.068 16.1116 22.253 17.5908 22.3874 17.8274C22.4868 17.9997 22.4868 18.8144 22.1494 19.7695ZM14.0028 0H13.9958C6.27759 0 0 6.27949 0 14C0 17.0613 0.98701 19.9015 2.66561 22.2052L0.921207 27.4073L6.30141 25.6881C8.51481 27.1529 11.1566 28 14.0028 28C21.721 28 28 21.7205 28 14C28 6.27949 21.721 0 14.0028 0Z" fill="black"/>
</svg>
