<svg width="24" height="24" viewBox="0 0 24 24" fill="none" xmlns="http://www.w3.org/2000/svg">
<path d="M19.9995 16.3541V18.7627C20.0004 18.9863 19.9545 19.2077 19.8648 19.4125C19.775 19.6174 19.6434 19.8013 19.4783 19.9525C19.3132 20.1036 19.1183 20.2187 18.906 20.2904C18.6938 20.362 18.4689 20.3886 18.2457 20.3685C15.7702 20.1 13.3923 19.2558 11.3031 17.9036C9.35937 16.6709 7.71141 15.0262 6.47627 13.0863C5.11669 10.9918 4.27059 8.60706 4.00653 6.12536C3.98643 5.90334 4.01286 5.67957 4.08416 5.4683C4.15546 5.25703 4.27005 5.0629 4.42065 4.89825C4.57124 4.73361 4.75454 4.60206 4.95886 4.51199C5.16319 4.42191 5.38407 4.37529 5.60744 4.37508H8.02086C8.41128 4.37124 8.78977 4.50922 9.0858 4.7633C9.38182 5.01737 9.57517 5.37021 9.62981 5.75603C9.73168 6.52685 9.92059 7.2837 10.1929 8.01213C10.3012 8.2995 10.3246 8.61182 10.2604 8.91207C10.1963 9.21232 10.0472 9.48792 9.83093 9.70621L8.80925 10.7259C9.95446 12.7359 11.6221 14.4002 13.6361 15.5432L14.6578 14.5235C14.8765 14.3076 15.1527 14.1589 15.4535 14.0948C15.7544 14.0308 16.0673 14.0542 16.3552 14.1622C17.0851 14.434 17.8435 14.6226 18.6158 14.7242C19.0066 14.7792 19.3635 14.9757 19.6186 15.2762C19.8737 15.5767 20.0093 15.9603 19.9995 16.3541Z" fill="white"/>
</svg>
